# xmcd
#
# Track frame offsets:
#	150
#	13712
#	27480
#	35255
#	40307
#	53107
#	65750
#	79292
#	96382
#	110870
#	124212
#	145627
#	157950
#	175497
#	183722
#	195885
#	216985
#	229675
#	246407
#	263555
#
# Disc length: 3829 seconds
#
# Revision: 3
# Processed by: cddbd v1.5.2PL0 Copyright (c) Steve Scherf et al.
# Submitted via: EasyCDDAExtractor 11.9.9.666
#
DISCID=240ef314
DTITLE=Jean-Pierre Danel  - The Best Of The Guitar Legends vol 2
DYEAR=2000
DGENRE=Instrumental Pop
TTITLE0=Apache
TTITLE1=Telstar
TTITLE2=Forbidden Games
TTITLE3=The Prisoner
TTITLE4=Walk don't Run
TTITLE5=Guitarmaster's Stores
TTITLE6=Guitar Tango
TTITLE7=Come Together
TTITLE8=Black Is Black
TTITLE9=We Are The Champions
TTITLE10=Rock'n Roll Cathedral
TTITLE11=Bluestar
TTITLE12=Ballad On The Moon
TTITLE13=36-24-36
TTITLE14=Summer Feeling
TTITLE15=Sea Socks And Sun
TTITLE16=Midnight Rockin'
TTITLE17=The Look Of The Beautiful Girl
TTITLE18=All Right
TTITLE19=A Story Of Love
EXTD=
EXTT0=
EXTT1=
EXTT2=
EXTT3=
EXTT4=
EXTT5=
EXTT6=
EXTT7=
EXTT8=
EXTT9=
EXTT10=
EXTT11=
EXTT12=
EXTT13=
EXTT14=
EXTT15=
EXTT16=
EXTT17=
EXTT18=
EXTT19=
PLAYORDER=
